# xmcd
#
# Track frame offsets: 
#        150
#        25488
#        49910
#        76295
#        100883
#        125985
#        146673
#        169125
#        188173
#        211525
#        237920
#        260883
#        285020
#
# Disc length: 4085 seconds
#
# Revision: 2
# Processed by: cddbd v1.5.2PL0 Copyright (c) Steve Scherf et al.
# Submitted via: ExactAudioCopy v1.0b2
#
DISCID=ba0ff30d
DTITLE=Quasimode - Magic Ensemble
DYEAR=2011
DGENRE=Jazz
TTITLE0=Ant Soldier
TTITLE1=Whisky's High
TTITLE2=Music Can Change The World
TTITLE3=Lush Life
TTITLE4=Waltz ga Kikoete feat. Miyuki Hatakeyama
TTITLE5=No More Sadness
TTITLE6=Conglis Strut
TTITLE7=Sympathy For The Devil
TTITLE8=Naghol Jumping
TTITLE9=Rebel Riot
TTITLE10=Flyin' To The Dark
TTITLE11=Cosmic Eyes
TTITLE12=Seven Colors
EXTD=YEAR: 2011
EXTT0=
EXTT1=
EXTT2=
EXTT3=
EXTT4=
EXTT5=
EXTT6=
EXTT7=
EXTT8=
EXTT9=
EXTT10=
EXTT11=
EXTT12=
PLAYORDER=
